<?xml version="1.0" encoding="UTF-8"?>
<svg width="128px" height="65px" viewBox="0 0 128 65" version="1.1" xmlns="http://www.w3.org/2000/svg" xmlns:xlink="http://www.w3.org/1999/xlink">
    <!-- Generator: Sketch 53.2 (72643) - https://sketchapp.com -->
    <title>Group 16</title>
    <desc>Created with Sketch.</desc>
    <defs>
        <polygon id="path-1" points="0.1821 0.829 21.9371 0.829 21.9371 53.0712 0.1821 53.0712"></polygon>
    </defs>
    <g id="Page-1" stroke="none" stroke-width="1" fill="none" fill-rule="evenodd">
        <g id="Group-16" transform="translate(0.000000, -1.000000)">
            <polygon id="Fill-1" fill="#0014D8" points="16.6095 7.9152 16.6095 30.3272 26.3365 21.5472 26.5255 23.7422 5.7875 42.4812 5.7875 47.0142 37.7815 18.1382 37.9705 20.3332 2.7035 52.2012 2.7035 56.0242 47.1965 15.8662 47.0995 18.3182 0.0005 60.8682 0.1035 65.1712 8.9715 57.1682 13.9585 52.6102 13.9585 52.6672 44.0305 25.5242 43.9345 27.9772 13.9585 55.0572 13.9585 59.2562 40.5405 35.2642 40.4445 37.7172 25.6995 51.0372 25.6995 54.8822 38.0905 43.8982 54.7565 43.8982 54.8645 7.9152"></polygon>
            <path d="M112.9942,28.9428 L115.5572,30.6958 L115.5572,21.4568 L118.5562,21.4568 L118.5562,19.1438 L102.3612,19.1438 L104.9352,21.4568 L112.9942,21.4568 L112.9942,28.9428 Z M116.5572,32.5918 L111.9942,29.4698 L111.9942,22.4568 L104.5532,22.4568 L99.7522,18.1438 L119.5562,18.1438 L119.5562,22.4568 L116.5572,22.4568 L116.5572,32.5918 Z" id="Fill-2" fill="#0014D8"></path>
            <path d="M109.1138,31.4565 L111.1638,31.4565 L98.9108,19.7505 L98.9108,31.4565 L101.4028,31.4565 L101.2888,23.8375 L109.1138,31.4565 Z M113.6578,32.4565 L108.7078,32.4565 L102.3248,26.2425 L102.4188,32.4565 L97.9108,32.4565 L97.9108,17.4125 L113.6578,32.4565 Z" id="Fill-3" fill="#0014D8"></path>
            <path d="M75.7852,21.4565 L78.7852,21.4565 L78.7852,30.6965 L81.3472,28.9425 L81.3472,21.4565 L89.4062,21.4565 L91.9802,19.1435 L75.7852,19.1435 L75.7852,21.4565 Z M77.7852,32.5915 L77.7852,22.4565 L74.7852,22.4565 L74.7852,18.1435 L94.5902,18.1435 L89.7892,22.4565 L82.3472,22.4565 L82.3472,29.4705 L77.7852,32.5915 Z" id="Fill-4" fill="#0014D8"></path>
            <path d="M92.9386,31.4565 L95.4306,31.4565 L95.4306,19.6605 L83.5266,30.8715 L90.2236,30.9705 L90.2236,29.6895 L86.6486,29.7165 L93.0526,23.8945 L92.9386,31.4565 Z M96.4306,32.4565 L91.9226,32.4565 L92.0176,26.1855 L89.2566,28.6965 L91.2236,28.6815 L91.2236,31.9845 L81.0446,31.8335 L96.4306,17.3445 L96.4306,32.4565 Z" id="Fill-5" fill="#0014D8"></path>
            <g id="Group-15" transform="translate(62.000000, 0.171400)">
                <path d="M11.9625,31.9736 C11.7245,31.9736 11.4865,31.9316 11.2625,31.8256 C10.6515,31.5366 10.3095,30.8816 10.2455,29.8796 C10.0565,26.9286 10.9785,22.7076 12.7945,21.0336 C12.9085,20.9286 13.0255,20.8336 13.1455,20.7506 L13.7175,21.5696 C13.6335,21.6286 13.5515,21.6966 13.4715,21.7696 C11.9455,23.1756 11.0725,27.1386 11.2435,29.8156 C11.2705,30.2356 11.3695,30.7686 11.6885,30.9206 C12.1295,31.1316 12.9835,30.6876 13.3275,30.4416 L15.9065,28.1566 L16.5695,28.9056 L13.9505,31.2226 C13.7955,31.3366 12.8795,31.9736 11.9625,31.9736" id="Fill-6" fill="#0014D8"></path>
                <g id="Group-10">
                    <mask id="mask-2" fill="white">
                        <use xlink:href="#path-1"></use>
                    </mask>
                    <g id="Clip-9"></g>
                    <path d="M2.9791,53.0712 C2.7791,53.0712 2.5831,53.0422 2.3901,52.9832 C0.8281,52.5122 0.2231,50.2572 0.1981,50.1612 L0.1821,50.0352 L0.1821,21.9102 C0.1821,18.7932 2.5501,16.5172 2.6501,16.4222 L19.4941,0.8282 L19.4941,16.0352 C19.4281,16.5142 19.1511,17.2252 17.4521,18.7112 L16.7941,17.9592 C18.2961,16.6442 18.4791,16.0972 18.5001,15.9612 L18.4951,3.1162 L3.3341,17.1522 C3.3171,17.1682 1.1821,19.2312 1.1821,21.9102 L1.1821,49.9672 C1.3381,50.5092 1.8601,51.7812 2.6801,52.0272 C3.1621,52.1672 3.7451,51.9452 4.4111,51.3492 C7.1391,48.9122 19.2671,38.5492 20.8701,37.1782 L20.9261,25.2842 L20.2841,25.9072 L19.5881,25.1892 L21.9371,22.9102 L21.8681,37.6412 L21.6941,37.7902 C21.5571,37.9072 7.9771,49.5042 5.0771,52.0952 C4.3511,52.7452 3.6471,53.0712 2.9791,53.0712" id="Fill-8" fill="#0014D8" mask="url(#mask-2)"></path>
                </g>
                <path d="M60.814,17.3095 L61.322,17.3095 C61.853,17.3095 62.189,17.0185 62.189,16.5795 C62.189,16.0825 61.83,15.8655 61.305,15.8655 C61.065,15.8655 60.899,15.8825 60.814,15.9055 L60.814,17.3095 Z M60.317,15.5575 C60.568,15.5115 60.934,15.4775 61.271,15.4775 C61.801,15.4775 62.149,15.5805 62.383,15.7915 C62.572,15.9625 62.686,16.2255 62.686,16.5275 C62.686,17.0295 62.366,17.3665 61.967,17.5035 L61.967,17.5205 C62.258,17.6235 62.435,17.8975 62.526,18.2965 C62.651,18.8325 62.743,19.2045 62.823,19.3525 L62.309,19.3525 C62.247,19.2385 62.161,18.9135 62.058,18.4335 C61.944,17.9025 61.733,17.7035 61.282,17.6855 L60.814,17.6855 L60.814,19.3525 L60.317,19.3525 L60.317,15.5575 Z" id="Fill-11" fill="#0014D8"></path>
                <path d="M61.7227,14.3295 C60.0087,14.3295 58.6137,15.7245 58.6137,17.4385 C58.6137,19.1525 60.0087,20.5475 61.7227,20.5475 C63.4367,20.5475 64.8317,19.1525 64.8317,17.4385 C64.8317,15.7245 63.4367,14.3295 61.7227,14.3295 M61.7227,21.0475 C59.7327,21.0475 58.1137,19.4285 58.1137,17.4385 C58.1137,15.4485 59.7327,13.8295 61.7227,13.8295 C63.7127,13.8295 65.3317,15.4485 65.3317,17.4385 C65.3317,19.4285 63.7127,21.0475 61.7227,21.0475" id="Fill-13" fill="#0014D8"></path>
            </g>
        </g>
    </g>
</svg>