<?xml version="1.0" encoding="UTF-8"?>
<svg width="22px" height="22px" viewBox="0 0 22 22" version="1.1" xmlns="http://www.w3.org/2000/svg" xmlns:xlink="http://www.w3.org/1999/xlink">
    <!-- Generator: Sketch 49.2 (51160) - http://www.bohemiancoding.com/sketch -->
    <title>Group 4 Copy 3</title>
    <desc>Created with Sketch.</desc>
    <defs></defs>
    <g id="Page-1" stroke="none" stroke-width="1" fill="none" fill-rule="evenodd">
        <g id="Group-4-Copy-3" transform="translate(1.000000, 1.000000)" fill="#2B91EC">
            <polygon id="Triangle" points="12.9233186 10.1855469 7.55222486 13.5483186 7.55222486 6.82277514"></polygon>
            <path d="M10,20.5 C4.20101013,20.5 -0.5,15.7989899 -0.5,10 C-0.5,4.20101013 4.20101013,-0.5 10,-0.5 C15.7989899,-0.5 20.5,4.20101013 20.5,10 C20.5,15.7989899 15.7989899,20.5 10,20.5 Z M10,19.5 C15.2467051,19.5 19.5,15.2467051 19.5,10 C19.5,4.75329488 15.2467051,0.5 10,0.5 C4.75329488,0.5 0.5,4.75329488 0.5,10 C0.5,15.2467051 4.75329488,19.5 10,19.5 Z" id="Oval-2" fill-rule="nonzero"></path>
        </g>
    </g>
</svg>