<?xml version="1.0" encoding="UTF-8"?>
<svg width="24px" height="24px" viewBox="0 0 24 24" version="1.1" xmlns="http://www.w3.org/2000/svg" xmlns:xlink="http://www.w3.org/1999/xlink">
    <!-- Generator: Sketch 48 (47235) - http://www.bohemiancoding.com/sketch -->
    <title>set</title>
    <desc>Created with Sketch.</desc>
    <defs></defs>
    <g id="lk_07" stroke="none" stroke-width="1" fill="none" fill-rule="evenodd" transform="translate(-1097.000000, -396.000000)">
        <path d="M1109.00248,413.176484 C1106.14475,413.176484 1103.82347,410.855202 1103.82347,407.997468 C1103.82347,405.139734 1106.14475,402.818452 1109.00248,402.818452 C1111.86022,402.818452 1114.1815,405.139734 1114.1815,407.997468 C1114.1815,410.855202 1111.86022,413.176484 1109.00248,413.176484 M1119.77163,405.480657 C1120.48857,405.600983 1121.00998,406.217652 1120.99995,406.944619 L1120.99995,409.055381 C1120.99995,409.782348 1120.47854,410.399017 1119.7616,410.519293 L1118.07704,410.800103 C1117.90658,411.361622 1117.67595,411.908051 1117.40021,412.434476 L1118.39289,413.828248 C1118.81403,414.419899 1118.74384,415.227033 1118.23246,415.738467 L1116.73842,417.23246 C1116.45766,417.51322 1116.08665,417.668691 1115.69058,417.668691 C1115.37974,417.668691 1115.07893,417.573383 1114.82825,417.392945 L1113.43949,416.400258 C1112.91808,416.676004 1112.3716,416.901615 1111.80507,417.07709 L1111.51929,418.761599 C1111.39897,419.478539 1110.7823,420 1110.05533,420 L1107.93961,420 C1107.21264,420 1106.59597,419.478539 1106.47564,418.761599 L1106.19488,417.07709 C1105.6484,416.906578 1105.11697,416.691045 1104.6106,416.425326 L1103.20178,417.42804 C1102.95111,417.608478 1102.6553,417.703786 1102.34446,417.703786 C1101.94839,417.703786 1101.57739,417.548315 1101.29663,417.267605 L1099.80258,415.773562 C1099.28619,415.262178 1099.22101,414.454944 1099.64215,413.863343 L1100.62982,412.489675 C1100.34906,411.968214 1100.11844,411.421735 1099.94296,410.860266 L1098.23835,410.569429 C1097.52141,410.449153 1097,409.832484 1097,409.105517 L1097,406.994755 C1097,406.267787 1097.52141,405.651118 1098.23835,405.530793 L1099.90286,405.250033 C1100.07332,404.68355 1100.29391,404.137021 1100.56966,403.610596 L1099.56695,402.201834 C1099.14581,401.610183 1099.216,400.802998 1099.72738,400.291614 L1101.22644,398.797571 C1101.50218,398.516861 1101.8782,398.361391 1102.27427,398.361391 C1102.58511,398.361391 1102.88593,398.456648 1103.13661,398.637137 L1104.51534,399.629823 C1105.03675,399.349063 1105.58323,399.118489 1106.14475,398.943015 L1106.43553,397.238401 C1106.55586,396.521411 1107.17253,396 1107.8995,396 L1110.01021,396 C1110.73718,396 1111.35385,396.521411 1111.47417,397.238401 L1111.75493,398.902856 C1112.34152,399.078331 1112.90805,399.313968 1113.44952,399.599742 L1114.84329,398.607055 C1115.09397,398.426567 1115.38977,398.331309 1115.70061,398.331309 C1116.09668,398.331309 1116.46768,398.48673 1116.74844,398.76754 L1118.24249,400.261533 C1118.75888,400.772967 1118.82406,401.580101 1118.40292,402.171702 L1117.41024,403.56046 C1117.68598,404.081922 1117.91159,404.62835 1118.08707,405.194884 L1119.77163,405.480657 Z M1109.00248,411.108929 C1110.71929,411.108929 1112.11394,409.714318 1112.11394,407.997468 C1112.11394,406.2807 1110.71929,404.886007 1109.00248,404.886007 C1107.28567,404.886007 1105.89102,406.2807 1105.89102,407.997468 C1105.89102,409.714318 1107.28567,411.108929 1109.00248,411.108929 Z" id="set" fill="#2B91EC"></path>
    </g>
</svg>