<?xml version="1.0" encoding="UTF-8"?>
<svg width="20px" height="20px" viewBox="0 0 20 20" version="1.1" xmlns="http://www.w3.org/2000/svg" xmlns:xlink="http://www.w3.org/1999/xlink">
    <!-- Generator: Sketch 49 (51002) - http://www.bohemiancoding.com/sketch -->
    <title>Shape</title>
    <desc>Created with Sketch.</desc>
    <defs></defs>
    <g id="Page-1" stroke="none" stroke-width="1" fill="none" fill-rule="evenodd">
        <g id="lk_14" transform="translate(-966.000000, -127.000000)" fill="#FFFFFF" fill-rule="nonzero">
            <g id="Group-9" transform="translate(966.000000, 126.000000)">
                <path d="M19.21875,1 L0.78125,1 C0.349765625,1 0,1.34990641 0,1.78156446 C0,4.80973595 0.895625,7.46088074 2.81855469,10.1248432 C4.01824219,11.7868791 6.17042969,13.0105355 7.265625,13.5584903 L7.265625,18.3036026 C7.265625,18.6018867 7.43539063,18.8741838 7.703125,19.0054475 L11.609375,20.9202804 C11.718125,20.9735831 11.8357422,21 11.9530859,21 C12.0969922,21 12.2404687,20.9602574 12.3665234,20.8816321 C12.5953125,20.7388793 12.734375,20.4881925 12.734375,20.2184355 L12.734375,16.997413 C12.734375,16.565755 12.3846094,16.2158486 11.953125,16.2158486 C11.5216406,16.2158486 11.171875,16.565755 11.171875,16.997413 L11.171875,18.9651188 L8.828125,17.816219 L8.828125,13.0671208 C8.828125,12.7618026 8.65039062,12.4844254 8.37304688,12.3569522 C6.91453125,11.6865262 5.0221875,10.5076925 4.0853125,9.20974845 C2.53316406,7.05946924 1.72882813,4.92880729 1.58582031,2.56312892 L18.4141797,2.56312892 C18.2711719,4.92876822 17.4668359,7.05946924 15.9146875,9.20974845 C14.9245312,10.5815113 13.0613281,11.7841827 11.6540625,12.3675424 C11.2554687,12.5328042 11.0662109,12.9899803 11.2314062,13.3887736 C11.3965625,13.7875278 11.8535547,13.9768618 12.2522266,13.8116 C13.7452344,13.1926791 15.9320703,11.855774 17.1814453,10.1248432 C19.104375,7.46088074 20,4.80973595 20,1.78156446 C20,1.34990641 19.6502344,1 19.21875,1 Z" id="Shape"></path>
            </g>
        </g>
    </g>
</svg>