<?xml version="1.0" encoding="UTF-8"?>
<svg width="26px" height="23px" viewBox="0 0 26 23" version="1.1" xmlns="http://www.w3.org/2000/svg" xmlns:xlink="http://www.w3.org/1999/xlink">
    <!-- Generator: Sketch 49 (51002) - http://www.bohemiancoding.com/sketch -->
    <title>Group 15</title>
    <desc>Created with Sketch.</desc>
    <defs></defs>
    <g id="Page-1" stroke="none" stroke-width="1" fill="none" fill-rule="evenodd">
        <g id="lk_10" transform="translate(-81.000000, -487.000000)" fill-rule="nonzero">
            <g id="Group-11" transform="translate(69.000000, 456.000000)">
                <g id="Group">
                    <g id="Group-15" transform="translate(12.000000, 31.000000)">
                        <path d="M11.4898333,3.03773585 L9.32316667,0 L0,0 L0,23 L26,23 L26,6.94339623 L26,6.0754717 L26,3.03773585 L11.4898333,3.03773585 Z M13.5445502,6 L12,4 L25,4 L25,6 L13.5445502,6 Z" id="Shape" fill="#A8AAB7"></path>
                        <path d="M20,10.6402001 L20,16.3541732 C20,16.7958737 19.5125947,17.0715849 19.1226705,16.8521413 L16.6971124,15.4792123 L16.6971124,15.870272 C16.6971124,17.0462645 15.725169,18 14.5267254,18 L8.17038706,18 C6.97194348,18 6,17.0462645 6,15.870272 L6,11.129728 C6,9.95373554 6.97194348,9 8.17038706,9 L14.5295925,9 C15.728036,9 16.6999795,9.95373554 16.6999795,11.129728 L16.6999795,11.5207877 L19.1255376,10.1478587 C19.5125947,9.92278837 20,10.2013129 20,10.6402001 Z" id="Shape" fill="#FFFFFF"></path>
                    </g>
                </g>
            </g>
        </g>
    </g>
</svg>