<?xml version="1.0" encoding="UTF-8"?>
<svg width="34px" height="34px" viewBox="0 0 34 34" version="1.1" xmlns="http://www.w3.org/2000/svg" xmlns:xlink="http://www.w3.org/1999/xlink">
    <!-- Generator: Sketch 49 (51002) - http://www.bohemiancoding.com/sketch -->
    <title>Group 17</title>
    <desc>Created with Sketch.</desc>
    <defs></defs>
    <g id="Page-1" stroke="none" stroke-width="1" fill="none" fill-rule="evenodd">
        <g id="lk_13-copy-2" transform="translate(-1090.000000, -20.000000)">
            <g id="Group-16" transform="translate(-2.000000, 11.000000)">
                <g id="Group-19" transform="translate(1093.000000, 10.000000)">
                    <g id="Group-3">
                        <g id="Group-17" transform="translate(-1.000000, -1.000000)">
                            <path d="M17,33.5 C7.88730163,33.5 0.5,26.1126984 0.5,17 C0.5,7.88730163 7.88730163,0.5 17,0.5 C26.1126984,0.5 33.5,7.88730163 33.5,17 C33.5,26.1126984 26.1126984,33.5 17,33.5 Z M17,32.5 C25.5604136,32.5 32.5,25.5604136 32.5,17 C32.5,8.43958638 25.5604136,1.5 17,1.5 C8.43958638,1.5 1.5,8.43958638 1.5,17 C1.5,25.5604136 8.43958638,32.5 17,32.5 Z" id="Oval-Copy" fill="#fff" fill-rule="nonzero"></path>
                            <g id="Group-14" transform="translate(8.000000, 8.000000)" fill="#fff">
                                <rect id="Rectangle-4" x="0" y="0" width="7.92" height="7.92"></rect>
                                <rect id="Rectangle-4-Copy-3" x="0" y="10.08" width="7.92" height="7.92"></rect>
                                <rect id="Rectangle-4-Copy" x="10.08" y="0" width="7.92" height="7.92"></rect>
                                <rect id="Rectangle-4-Copy-4" x="10.08" y="10.08" width="7.92" height="7.92"></rect>
                            </g>
                        </g>
                    </g>
                </g>
            </g>
        </g>
    </g>
</svg>